<?xml version="1.0" encoding="UTF-8"?><svg id="Layer_6" xmlns="http://www.w3.org/2000/svg" viewBox="0 0 600 600"><defs><style>.cls-1{stroke-width:0px;}</style></defs><path class="cls-1" d="M509.4867,310.2171c-33.2054-20.9561-76.0701-25.7103-122.1743-28.456-4.7416-.5831-22.8712-.5328-22.3941-6.9077,2.0192-5.1684,12.2946-7.1241,17.4081-8.7498,37.9832-10.0195,76.0804-18.8413,112.8143-31.539,19.2082-7.3081,42.6952-16.6861,49.305-38.0308,2.8916-10.8022,3.1488-22.2977,2.4648-33.376-4.9105-84.6821-103.5711-123.4685-175.2006-93.209-10.5446,4.3723-24.1312,11.9952-34.0985,3.0644-3.0147-2.6844-4.9827-6.4086-6.0382-10.2806-2.2106-7.1556-.4238-15.2196-3.0805-22.2315-4.9025-9.2366-13.4397,9.2382-18.1288,11.5056-5.8354,4.59-14.5965,4.9183-20.7291.7461-4.8392-2.0613-13.6743-18.7619-18.2235-11.2993-2.2119,3.9389-1.6709,12.6095-2.5041,18.2764-.7614,8.4132-7.018,16.5208-15.8469,17.1303-8.2186.7451-16.7077-3.6746-24.5804-6.7584-38.129-15.5485-84.4033-13.6609-120.1758,6.8337-29.4166,16.813-51.9759,47.0847-54.8832,81.3874-1.5947,16.5015-.699,34.8211,7.9084,49.2391,5.2044,8.3782,12.9924,13.6891,22.2652,18.2019,30.335,13.9739,62.6687,21.4096,94.7732,30.1919,15.352,4.3378,31.1874,7.482,46.3446,12.2613,2.3639.7823,4.8719,1.7081,7.0232,2.8737,14.87,8.9464-12.2803,10.3033-17.9698,10.3877-62.7735,2.76-164.5321,16.8576-160.4701,99.0086,2.2103,30.0998,15.7228,58.3621,25.9853,86.5843,6.0786,15.8475,12.2446,32.0237,19.4288,47.1395,8.9616,19.2964,19.5921,36.747,41.0771,43.6643,17.6639,5.1337,36.4887,4.3868,54.7125,3.5135,23.1095-1.0765,45.2119-7.3101,65.4506-17.0271,14.8592-6.3348,21.7864,7.1562,34.6972,11.9135,14.9762,5.4616,24.0419-13.148,38.1883-12.9846,6.9346.0075,13.3532,3.6955,19.6021,6.3717,28.384,12.4612,61.3003,13.6594,92.088,11.589,8.7953-.9896,17.7464-3.2338,25.4252-7.6015,22.0078-13.0831,31.3963-39.009,40.8524-61.5894,22.8913-59.3372,66.5698-140.4407-1.1481-181.7367l-.1681-.1068ZM323.4183,136.4358c39.1213-90.3365,200.6415-74.2016,209.5833,26.3535,1.9523,30.1921-3.5522,45.656-33.2972,57.1559-14.3474,5.6189-28.8995,9.878-43.6093,14.0439-27.8263,7.6734-69.7095,18.8092-95.7596,1.3525-3.9583-3.0328-7.3816-7.1242-9.25-11.7333-1.6407-3.8183-2.2041-9.7769,2.5256-11.0446,3.7011-.8371,7.356.4589,11.438,1.3973,4.6774,1.2281,9.4487,2.0879,13.8563,1.7904,6.7416-.3295,13.4402-2.5468,19.0094-6.3922,17.4527-11.5989,21.0264-38.7419,6.7556-54.2553-11.3869-12.9267-32.1454-16.2802-46.7253-6.8522-14.6297,8.7666-17.2058,27.0139-26.6983,40.0686-2.3103,3.0979-10.1729,13.7565-13.7583,7.8706-1.8254-4.0612-1.4631-9.6014-1.5827-14.0554.0991-15.5028,1.1735-31.2306,7.4364-45.5238l.076-.1759ZM350.441,184.4147c4.5547-4.0574,18.8979,10.4742,39.1946,3.7746,3.734-.7166,13.9315-6.5502,15.4924-1.0449.4877,4.5094-3.5041,9.8742-6.5403,13.5501-6.36,7.7801-16.7145,12.6071-26.6953,9.9571-8.338-2.0678-15.1407-9.0502-19.3923-16.5833-1.403-2.4955-3.6178-7.4799-2.1223-9.5727l.0632-.0809ZM237.3459,236.9877c-25.9324,14.4243-60.7033,5.6796-88.8781-1.7425-13.6693-3.8032-27.995-7.7036-41.0738-12.3741-13.9206-5.1096-29.6624-11.6161-36.255-25.6598-8.9644-20.4003-4.5036-51.4933,7.1979-70.2037,48.3319-80.7869,197.0828-61.6549,205.3351,38.8605.5174,6.0798.5175,12.2936.4586,18.837-.3085,3.9251.3702,10.0379-3.141,12.5106-4.1269,1.5455-8.283-3.9301-11.2536-7.5491-5.9253-7.5913-8.9428-16.0744-13.1067-24.4817-13.7318-30.3038-57.038-29.8981-68.3192,2.221-6.8755,19.7182,4.9922,42.8481,26.2838,47.4686,6.8552,1.6276,14.0492.9169,20.7677-1.1362,4.0495-1.0028,8.9412-3.4288,12.6462-1.6033,3.0975,1.7046,2.8247,6.0049,1.8964,8.9988-2.0293,6.6285-6.7872,12.25-12.4048,15.758l-.1536.0961ZM238.5469,205.1631c-14.7384,12.7659-34.1685,4.5376-42.2188-11.8846-2.2428-4.0232-2.4569-9.3332,3.5486-8.3859,3.78.6706,7.5605,2.5166,11.3678,3.4979,7.457,2.2365,15.4012,2.1006,22.4089-.2007,3.5318-1.097,7.1399-2.8611,10.6725-3.9159,1.881-.5495,3.498-.7082,4.4989-.2234,5.018,3.2031-6.1994,17.9096-10.1368,20.9913l-.1411.1212ZM260.5094,521.2221c-20.837,20.1539-52.9105,22.6449-81.3045,23.1875-11.3826.055-22.9112-.0396-33.9512-3.2176-16.048-4.3236-25.7755-18.3129-32.7455-32.7328-6.3959-12.8941-11.8254-26.1506-17.1115-39.4259-8.6978-22.8733-18.5637-45.1766-24.8337-68.9178-19.1119-66.1137,32.3131-90.6141,88.0871-100.225,14.3105-2.4571,28.9206-3.953,42.2762-4.787,1.5947-.1077,3.6301-.0262,4.8425.6977,2.3306,1.383,1.4157,5.0467.8826,7.5798-.7408,3.3198-1.3222,6.7171-1.7511,10.1433-4.6822,42.0936,6.0791,93.0428,43.4642,117.2609,7.6979,5.0517,22.0246,8.1453,26.1386-1.9614,4.8382-14.3465-7.3346-30.4674-14.1823-42.5552-4.5015-6.9117-.5427-9.8167,6.5036-5.4481,12.9209,9.3212,16.2674,26.3608,17.0533,41.3793.3705,33.3544,1.6841,74.0043-23.2357,98.8923l-.1326.1299ZM295.7728,538.2541c-18.1559-9.5695-7.5328-34.1188-4.4637-49.5798,6.6923-29.9483,4.3315-60.7733,5.4463-91.2757,1.0916-42.7982,1.061-89.9762-33.0964-112.3934-2.0476-2.0043-3.5069-4.3246-3.5854-6.7039-.1387-2.7985,1.639-5.4491,4.1269-7.7953,29.4682-18.0371,31.9939-47.2632,32.333-81.7693.1246-16.2934-.0124-32.7822-4.503-48.4618-2.6083-8.8073-7.742-16.7144-10.1402-25.565-3.7474-12.252,1.9126-28.8759,13.8507-33.9545,11.3933-3.8343,19.8156,7.6819,22.0622,18.1011,3.6279,14.4042-5.0577,26.8138-9.2028,39.9414-4.9538,15.5226-5.0376,31.8302-5.1919,48.0481-.1493,28.8436,1.6283,52.4821,16.5997,69.6236,3.3684,4.0254,7.4612,7.8841,12.2995,11.7329,6.0731,4.3211,10.8734,10.8751,4.0705,16.9238-34.4522,23.7789-34.0205,67.2457-33.0201,109.2627.5215,35.8387-1.2167,72.0086,8.1672,106.8864,4.9381,12.9122,4.8933,42.6259-15.5799,37.0457l-.1723-.0669ZM525.7504,412.6167c-8.977,25.9536-19.3823,51.3434-29.5091,76.8374-6.5633,15.2962-13.1852,31.2773-25.4153,42.9392-12.4639,11.0856-30.2832,11.9798-46.2146,12.0238-35.9608-.1082-82.7331-4.4134-98.4747-41.7303-8.7798-19.7743-9.828-42.5358-10.2536-63.8569-.1418-16.3487-.1555-33.8294,8.5161-48.2777,2.1331-3.4851,4.9358-6.8083,8.2677-9.2534,7.3622-5.1616,11.2599-2.3246,6.3928,5.0844-6.119,10.7507-13.8815,21.7711-15.2053,34.4632-.9526,13.9847,10.8578,17.4429,22.187,12.5271,18.8355-8.3529,31.2586-27.1501,39.1524-45.3705,11.1601-26.8581,13.0352-56.1865,7.7272-84.6867-.4601-2.2947-1.0071-5.6885.757-7.0033,1.2765-1.1204,4.195-1.1013,6.2003-.9803,41.6328,2.7359,91.0707,9.243,119.8985,39.548,18.4485,21.3624,14.7251,52.6833,6.0345,77.5551l-.0607.1808Z"/></svg>